<mxfile host="app.diagrams.net" modified="2023-11-13T16:09:04.310Z" agent="Mozilla/5.0 (Windows NT 10.0; Win64; x64) AppleWebKit/537.36 (KHTML, like Gecko) Chrome/119.0.0.0 Safari/537.36" version="22.1.0" etag="NoK2Vl7TGQs0ZCOxc9gK" type="github">
  <diagram name="Page-1" id="tUVt53vc9TVvebP_oMQo">
    <mxGraphModel>
      <root>
        <mxCell id="0" />
        <mxCell id="1" parent="0" />
      </root>
    </mxGraphModel>
  </diagram>
</mxfile>
